<?xml version="1.0" encoding="utf-8"?>
<!-- Generator: Adobe Illustrator 26.3.1, SVG Export Plug-In . SVG Version: 6.00 Build 0)  -->
<svg version="1.1" id="Слой_1" xmlns="http://www.w3.org/2000/svg" xmlns:xlink="http://www.w3.org/1999/xlink" x="0px" y="0px"
	 width="500px" height="138.1px" viewBox="0 0 500 138.1" style="enable-background:new 0 0 500 138.1;" xml:space="preserve">
<style type="text/css">
	.st0{fill:#242B2C;}
	.st1{fill:url(#SVGID_1_);}
</style>
<g id="Symbols">
	<g id="Blocks_x2F_Header_x5F_Unlogged" transform="translate(-15.000000, -15.000000)">
		<g id="icons_x2F_boosty_x5F_logo" transform="translate(15.000000, 15.000000)">
			<g id="Shape">
				<path class="st0" d="M476.8,45.4l-21.1,32.7l-2.1-32.7h-30.5c2.8-9.6,5-17.3,5-17.3l1.2-3.8h-23.3l-1.1,3.8l-5,17.3h-24.8
					c-20.4,0-31.9,5.8-36.6,16.8c-2.7-10-11.8-16.8-25.8-16.8c-11.4,0-22.3,4.1-30.8,11.6c-4.1-7.1-12.3-11.6-23.6-11.6
					c-12.1-0.1-23.8,4.7-32.5,13.1c-3.8-7.9-12.3-13.1-24.4-13.1c-4,0-8,0.5-11.9,1.6l1.8-6.3c0-0.1,0.1-0.2,0.1-0.3l4.7-16.2h-23.2
					L158,75c-0.4,1-0.7,2.1-1,3.1c-0.7,2.2-1.1,4.5-1.3,6.8c-1.9,14.2,4.3,24.9,21.6,25.6c1.7,0.2,3.3,0.3,5,0.3
					c12-0.1,23.5-4.8,32.1-13.1c3.6,8,11.9,13.1,24.8,13.1c11.2-0.1,22-4.2,30.4-11.6c3.9,7.1,12,11.6,24,11.6h58.2
					c18,0,28.2-3.5,33.5-11.2c0,7.3,4.2,11.2,14.9,11.2c8.6,0,20.1-1.9,36-5.8l-23.1,32.7h23.2L500,45.4H476.8z M203.4,78.1
					c-2.2,7.5-9.2,13.5-15.6,13.5c-6.4,0-9.9-6-7.7-13.5c2.2-7.5,9.2-13.5,15.5-13.5C202.1,64.6,205.6,70.6,203.4,78.1z M260.3,78.1
					c-2.2,7.5-9.2,13.5-15.6,13.5c-6.4,0-9.8-6-7.6-13.5c2.1-7.5,9.2-13.5,15.6-13.5S262.5,70.6,260.3,78.1z M291.5,78.1
					c2.2-7.5,9.2-13.5,15.5-13.5s9.9,6,7.7,13.5s-8.9,13.3-15.3,13.5H299C292.7,91.4,289.4,85.5,291.5,78.1z M366.3,89.3
					c-1.2,2.7-10.3,2.3-12.6,2.4l-22.6,0c3-4.1,5.3-8.6,6.8-13.5c0.1-0.5,0.3-1,0.4-1.5c2.4,3.5,7.6,6.6,17.6,8.5
					C365.4,87,367.2,86.5,366.3,89.3z M389.3,81.9c-2-7.7-10.5-10.7-22.6-12.2c-5-0.6-7.9-0.8-7.2-3c0.5-1.7,3-2,8.4-2h26.4
					L389.3,81.9z M412.5,82c0-0.2,2.3-7.8,5-17.3h14.7l2.4,24.5C410.4,94.3,409.8,92.9,412.5,82L412.5,82z"/>
				
					<linearGradient id="SVGID_1_" gradientUnits="userSpaceOnUse" x1="-43.8398" y1="480.6799" x2="-44.7822" y2="476.6631" gradientTransform="matrix(32.6122 0 0 -40 1499.1532 19245.1934)">
					<stop  offset="0" style="stop-color:#EF7829"/>
					<stop  offset="0.28" style="stop-color:#F0692A"/>
					<stop  offset="0.63" style="stop-color:#F15E2C"/>
					<stop  offset="1" style="stop-color:#F15A2C"/>
				</linearGradient>
				<path class="st1" d="M3.6,82.5L27,0h35.9l-7.3,25.6c-0.1,0.1-0.1,0.3-0.2,0.5L36.4,93.5h17.8c-7.4,18.9-13.2,33.8-17.4,44.5
					c-32.8-0.4-42-24.3-34-52.7L3.6,82.5z M36.8,138.1l43.3-63.5H61.8l16-40.7c27.4,2.9,40.3,24.9,32.7,51.5
					c-8.1,28.6-41,52.7-72.9,52.7H36.8z"/>
			</g>
		</g>
	</g>
</g>
</svg>
